<svg height='300px' width='300px'  fill="#fff" xmlns="http://www.w3.org/2000/svg" xmlns:xlink="http://www.w3.org/1999/xlink" version="1.1" x="0px" y="0px" viewBox="0 0 64 64" style="enable-background:new 0 0 64 64;" xml:space="preserve"><g><path d="M37,13.184V7h-2v6.184c-1.161,0.414-2,1.514-2,2.816s0.839,2.402,2,2.816V25h2v-6.184c1.161-0.414,2-1.514,2-2.816   S38.161,13.598,37,13.184z M36,17c-0.552,0-1-0.448-1-1s0.448-1,1-1s1,0.448,1,1S36.552,17,36,17z"></path><path d="M57,9.184V7h-2v2.184c-1.161,0.414-2,1.514-2,2.816s0.839,2.402,2,2.816V25h2V14.816c1.161-0.414,2-1.514,2-2.816   S58.161,9.598,57,9.184z M56,13c-0.552,0-1-0.448-1-1s0.448-1,1-1s1,0.448,1,1S56.552,13,56,13z"></path><path d="M60,1H32c-1.654,0-3,1.346-3,3v5H4c-1.654,0-3,1.346-3,3v48c0,1.654,1.346,3,3,3h54V50.273c1.964-3.369,3-7.202,3-11.104   v-6.353c1.161-0.414,2-1.514,2-2.816V4C63,2.346,61.654,1,60,1z M36.108,45H25v-2h10.524C35.684,43.677,35.877,44.345,36.108,45z    M35,37H7V27h22v3c0,1.654,1.346,3,3,3h3V37z M4,11h25v10H3v-9C3,11.448,3.448,11,4,11z M3,60V23h26v2H5v14h30.017   c0.014,0.671,0.068,1.337,0.152,2H23v6h13.952c0.57,1.176,1.246,2.303,2.048,3.346V61H4C3.448,61,3,60.552,3,60z M41,61V51h15v10   H41z M59,39.169c0,3.448-0.9,6.832-2.588,9.831H40.507C38.249,46.015,37,42.344,37,38.597V29c1.103,0,2,0.897,2,2v6   c0,1.654,1.346,3,3,3s3-1.346,3-3V22c0-0.552,0.448-1,1-1s1,0.448,1,1v16h2V28c0-0.552,0.448-1,1-1s1,0.448,1,1v10h2v-8   c0-0.552,0.448-1,1-1s1,0.448,1,1v8h2v-6c0-0.552,0.448-1,1-1s1,0.448,1,1V39.169z M41,33h2v4c0,0.552-0.448,1-1,1s-1-0.448-1-1V33   z M45,10c0-0.552,0.448-1,1-1s1,0.448,1,1s-0.448,1-1,1S45,10.552,45,10z M61,30c0,0.28-0.116,0.531-0.302,0.713   C60.215,29.704,59.192,29,58,29c-0.395,0-0.77,0.081-1.116,0.22C56.539,27.945,55.383,27,54,27c-0.395,0-0.77,0.081-1.116,0.22   C52.539,25.945,51.383,25,50,25c-0.352,0-0.686,0.072-1,0.184V22c0-1.302-0.839-2.402-2-2.816v-6.369c1.161-0.414,2-1.514,2-2.816   c0-1.654-1.346-3-3-3s-3,1.346-3,3c0,1.302,0.839,2.402,2,2.816v6.369c-1.161,0.414-2,1.514-2,2.816v9h-2c0-2.206-1.794-4-4-4   c-1.103,0-2,0.897-2,2v2h-3c-0.552,0-1-0.448-1-1V4c0-0.552,0.448-1,1-1h28c0.552,0,1,0.448,1,1V30z"></path><path d="M12,43c-3.859,0-7,3.141-7,7s3.141,7,7,7s7-3.141,7-7S15.859,43,12,43z M16.899,49H13v-3.899   C14.956,45.5,16.5,47.044,16.899,49z M11,45.101v4.485l-3.167,3.167C7.309,51.962,7,51.017,7,50C7,47.586,8.721,45.566,11,45.101z    M12,55c-1.017,0-1.962-0.309-2.753-0.833L12.414,51h4.485C16.434,53.279,14.414,55,12,55z"></path><rect x="23" y="49" width="4" height="2"></rect><rect x="29" y="49" width="8" height="2"></rect><rect x="23" y="57" width="4" height="2"></rect><rect x="29" y="57" width="8" height="2"></rect><rect x="23" y="53" width="14" height="2"></rect><path d="M11,13H5v6h6V13z M9,17H7v-2h2V17z"></path><path d="M19,13h-6v6h6V13z M17,17h-2v-2h2V17z"></path><path d="M27,13h-6v6h6V13z M25,17h-2v-2h2V17z"></path></g></svg>