<svg width="32" height="32" viewBox="0 0 32 32" fill="none" xmlns="http://www.w3.org/2000/svg">
<path opacity="0.4" d="M16 3C8.8203 3 3 8.8203 3 16C3 19.1656 4.13261 22.0686 6.01325 24.323L4.64039 28.029C4.50686 28.3894 4.59176 28.7945 4.85879 29.071C5.12582 29.3475 5.52771 29.4465 5.8926 29.3256L10.5211 27.7922C12.1871 28.5675 14.0443 29 16 29C23.1797 29 29 23.1797 29 16C29 8.8203 23.1797 3 16 3Z" fill="#7CE2E2"/>
<ellipse cx="10.6666" cy="16" rx="1.33334" ry="1.33333" fill="#4944DA"/>
<ellipse cx="16" cy="16" rx="1.33333" ry="1.33333" fill="#4944DA"/>
<ellipse cx="21.3333" cy="16" rx="1.33333" ry="1.33333" fill="#4944DA"/>
</svg>
