<svg width="64" height="93" viewBox="0 0 64 93" fill="none" xmlns="http://www.w3.org/2000/svg">
<path d="M58.3486 8.10506C58.8358 8.71383 59.0443 9.54887 58.9462 10.5944C58.8478 11.6432 58.4423 12.8706 57.7433 14.2021C56.346 16.8638 53.8217 19.8545 50.4897 22.5209C47.1578 25.1873 43.6864 26.9946 40.7832 27.7745C39.3308 28.1646 38.0443 28.2912 36.9994 28.1573C35.9579 28.0238 35.1888 27.6374 34.7016 27.0287C34.2145 26.4199 34.0061 25.5848 34.1041 24.5394C34.2025 23.4905 34.6081 22.2631 35.3071 20.9316C36.7044 18.2699 39.2287 15.2792 42.5606 12.6128C45.8925 9.94637 49.3639 8.13907 52.2671 7.35922C53.7195 6.96908 55.0059 6.84246 56.0508 6.97638C57.0924 7.10988 57.8615 7.49628 58.3486 8.10506Z" fill="#29C16E" stroke="black"/>
<path d="M14.7628 21.442L14.4364 21.7684L14.7628 21.442C12.0059 18.6852 9.93314 15.7972 8.80243 13.371C8.23616 12.1559 7.91816 11.0821 7.85335 10.2136C7.78839 9.34301 7.98005 8.7463 8.34602 8.38033C8.712 8.01435 9.30871 7.82269 10.1793 7.88765C11.0478 7.95246 12.1216 8.27046 13.3367 8.83673C15.7629 9.96743 18.6509 12.0402 21.4077 14.797C24.1646 17.5539 26.2374 20.4418 27.3681 22.8681C27.9343 24.0832 28.2523 25.157 28.3171 26.0255C28.3821 26.8961 28.1904 27.4928 27.8245 27.8588C27.4585 28.2247 26.8618 28.4164 25.9912 28.3514C25.1227 28.2866 24.0489 27.9686 22.8338 27.4024C20.4076 26.2717 17.5196 24.1989 14.7628 21.442Z" fill="#29C16E" stroke="black"/>
<path d="M55.1864 57.8151L55.1863 57.8152C54.5776 58.3023 53.7426 58.5108 52.6971 58.4127C51.6483 58.3143 50.4209 57.9088 49.0893 57.2098C46.4277 55.8125 43.4369 53.2882 40.7706 49.9562L40.7706 49.9562C38.1042 46.6244 36.2969 43.153 35.5171 40.2499C35.1269 38.7975 35.0003 37.5111 35.1342 36.4662C35.2677 35.4246 35.6541 34.6556 36.2629 34.1684L36.2629 34.1684C36.8717 33.6812 37.7067 33.4728 38.7522 33.5709C39.801 33.6693 41.0285 34.0748 42.36 34.7738C45.0216 36.1711 48.0124 38.6954 50.6788 42.0273C53.3451 45.3593 55.1524 48.8308 55.9323 51.7339C56.3224 53.1863 56.449 54.4727 56.3151 55.5176C56.1816 56.5591 55.7952 57.328 55.1864 57.8151Z" fill="#EF3C56" stroke="black"/>
<path d="M30.1531 34.9114L30.1531 34.9114C30.2367 34.9208 30.3701 34.9674 30.5625 35.1015C30.7519 35.2336 30.9702 35.4307 31.2197 35.6981C31.7196 36.2338 32.297 36.9994 32.9673 37.9511C33.3974 38.5616 33.8641 39.2467 34.368 39.9862C35.4179 41.5274 36.629 43.305 38.0047 45.1368C42.0837 50.5684 47.7373 56.6601 55.5205 59.192C57.179 59.7317 58.2518 60.5431 58.8805 61.5138C59.5093 62.4846 59.7303 63.6709 59.5798 65.0286C59.2761 67.769 57.4678 71.1004 54.7165 74.355C51.9768 77.5961 48.3519 80.7016 44.5116 82.9939C40.6641 85.2905 36.6458 86.7441 33.1129 86.7441C26.2187 86.7441 19.6069 84.0055 14.732 79.1304L14.3785 79.4839L14.732 79.1304C9.85712 74.2557 7.11841 67.6438 7.11841 60.7496C7.11841 53.529 9.35243 46.6554 13.3468 41.8007C17.3303 36.9593 23.0672 34.1162 30.1531 34.9114Z" fill="#EF3C56" stroke="black"/>
<path d="M0.0128391 3.99881C0.020325 9.71149 1.55488 15.3183 4.45759 20.2386C7.36027 25.1589 11.5256 29.2137 16.5221 31.9831C13.9035 33.4355 11.5008 35.2469 9.3839 37.3646C4.63496 42.1089 1.49817 48.2265 0.417465 54.8515C-0.663246 61.4765 0.366842 68.2739 3.36195 74.2813C6.35705 80.2887 11.1655 85.2023 17.1069 88.3266C23.0482 91.4504 29.8216 92.6273 36.4685 91.6898C43.1154 90.7523 49.2995 87.7486 54.1452 83.1031C58.9909 78.4576 62.2527 72.4062 63.4697 65.8047C64.6866 59.2032 63.797 52.3862 60.926 46.3183C58.0555 40.2505 53.3491 35.2391 47.4736 31.9931C52.4768 29.2276 56.6479 25.1729 59.5541 20.2501C62.4603 15.3274 63.9954 9.71628 63.9998 3.99968C63.9998 3.47445 63.8966 2.95435 63.6956 2.46908C63.4949 1.9838 63.2002 1.54287 62.829 1.17146C62.4573 0.800046 62.0163 0.505434 61.531 0.304453C61.0462 0.103471 60.526 5.65719e-05 60.0007 0.000113755C55.7974 -0.0111313 51.6333 0.811432 47.7504 2.4202C43.867 4.02897 40.3413 6.39197 37.3774 9.37247C35.2598 11.4894 33.4485 13.8921 31.9963 16.5107C29.2291 11.5122 25.1748 7.34531 20.254 4.44233C15.3332 1.53931 9.72523 0.00597786 4.01196 0.00141548C3.48691 0.00130115 2.96697 0.10461 2.48183 0.305436C1.9967 0.506261 1.55587 0.800672 1.18452 1.17186C0.813164 1.54305 0.518561 1.98376 0.317524 2.4688C0.116486 2.95385 0.0129534 3.47375 0.0128391 3.99881ZM36.4129 27.5814C37.3033 22.8248 39.6107 18.4484 43.0325 15.0264C46.4542 11.6045 50.8307 9.29682 55.5872 8.4062C54.6901 13.1599 52.3802 17.5326 48.96 20.9534C45.5393 24.3742 41.1665 26.6841 36.4129 27.5814ZM48.9652 43.0282C52.3881 46.4458 54.6966 50.8197 55.5872 55.574C50.8359 54.6756 46.4651 52.3666 43.0459 48.9472C39.6267 45.5279 37.3172 41.1576 36.4189 36.4062C41.1735 37.2967 45.5471 39.6052 48.9652 43.0282ZM15.0387 43.0204C18.6263 39.4139 23.2744 37.051 28.3023 36.2778C29.2448 43.2165 32.4361 49.655 37.3875 54.6064C42.3388 59.5579 48.7767 62.7496 55.7156 63.6924C55.131 67.436 53.6681 70.9882 51.4466 74.0576C49.2255 77.127 46.3088 79.6271 42.9355 81.3525C39.5622 83.0783 35.8283 83.9805 32.0393 83.9858C28.2503 83.9906 24.514 83.0987 21.1361 81.3821C17.7582 79.6654 14.8348 77.1736 12.6052 74.1098C10.3756 71.0465 8.90312 67.4983 8.30834 63.7564C7.71352 60.0145 8.01333 56.1847 9.18312 52.5807C10.353 48.9768 12.3596 45.7015 15.0387 43.0221V43.0204ZM8.42466 8.4122C13.1756 9.31064 17.5455 11.62 20.9645 15.0389C24.3839 18.4583 26.6933 22.8289 27.5915 27.5805C22.8402 26.6821 18.4699 24.3726 15.0508 20.9532C11.6318 17.5339 9.32269 13.1635 8.42466 8.4122Z" fill="#0E1E28"/>
<path d="M0.0128391 3.99881C0.020325 9.71149 1.55488 15.3183 4.45759 20.2386C7.36027 25.1589 11.5256 29.2137 16.5221 31.9831C13.9035 33.4355 11.5008 35.2469 9.3839 37.3646C4.63496 42.1089 1.49817 48.2265 0.417465 54.8515C-0.663246 61.4765 0.366842 68.2739 3.36195 74.2813C6.35705 80.2887 11.1655 85.2023 17.1069 88.3266C23.0482 91.4504 29.8216 92.6273 36.4685 91.6898C43.1154 90.7523 49.2995 87.7486 54.1452 83.1031C58.9909 78.4576 62.2527 72.4062 63.4697 65.8047C64.6866 59.2032 63.797 52.3862 60.926 46.3183C58.0555 40.2505 53.3491 35.2391 47.4736 31.9931C52.4768 29.2276 56.6479 25.1729 59.5541 20.2501C62.4603 15.3274 63.9954 9.71628 63.9998 3.99968C63.9998 3.47445 63.8966 2.95435 63.6956 2.46908C63.4949 1.9838 63.2002 1.54287 62.829 1.17146C62.4573 0.800046 62.0163 0.505434 61.531 0.304453C61.0462 0.103471 60.526 5.65719e-05 60.0007 0.000113755C55.7974 -0.0111313 51.6333 0.811432 47.7504 2.4202C43.867 4.02897 40.3413 6.39197 37.3774 9.37247C35.2598 11.4894 33.4485 13.8921 31.9963 16.5107C29.2291 11.5122 25.1748 7.34531 20.254 4.44233C15.3332 1.53931 9.72523 0.00597786 4.01196 0.00141548C3.48691 0.00130115 2.96697 0.10461 2.48183 0.305436C1.9967 0.506261 1.55587 0.800672 1.18452 1.17186C0.813164 1.54305 0.518561 1.98376 0.317524 2.4688C0.116486 2.95385 0.0129534 3.47375 0.0128391 3.99881ZM36.4129 27.5814C37.3033 22.8248 39.6107 18.4484 43.0325 15.0264C46.4542 11.6045 50.8307 9.29682 55.5872 8.4062C54.6901 13.1599 52.3802 17.5326 48.96 20.9534C45.5393 24.3742 41.1665 26.6841 36.4129 27.5814ZM48.9652 43.0282C52.3881 46.4458 54.6966 50.8197 55.5872 55.574C50.8359 54.6756 46.4651 52.3666 43.0459 48.9472C39.6267 45.5279 37.3172 41.1576 36.4189 36.4062C41.1735 37.2967 45.5471 39.6052 48.9652 43.0282ZM15.0387 43.0204C18.6263 39.4139 23.2744 37.051 28.3023 36.2778C29.2448 43.2165 32.4361 49.655 37.3875 54.6064C42.3388 59.5579 48.7767 62.7496 55.7156 63.6924C55.131 67.436 53.6681 70.9882 51.4466 74.0576C49.2255 77.127 46.3088 79.6271 42.9355 81.3525C39.5622 83.0783 35.8283 83.9805 32.0393 83.9858C28.2503 83.9906 24.514 83.0987 21.1361 81.3821C17.7582 79.6654 14.8348 77.1736 12.6052 74.1098C10.3756 71.0465 8.90312 67.4983 8.30834 63.7564C7.71352 60.0145 8.01333 56.1847 9.18312 52.5807C10.353 48.9768 12.3596 45.7015 15.0387 43.0221V43.0204ZM8.42466 8.4122C13.1756 9.31064 17.5455 11.62 20.9645 15.0389C24.3839 18.4583 26.6933 22.8289 27.5915 27.5805C22.8402 26.6821 18.4699 24.3726 15.0508 20.9532C11.6318 17.5339 9.32269 13.1635 8.42466 8.4122Z" stroke="black"/>
</svg>
